Coordinates
version=1
nRows=14
nColumns=36
inDegrees=yes

Units are S.I. units (second, meters, Newtons, ...)
If the header above contains a line with 'inDegrees', this indicates whether rotational values are in degrees (yes) or radians (no).

endheader
time	pelvis_tilt	pelvis_list	pelvis_rotation	pelvis_tx	pelvis_ty	pelvis_tz	hip_flexion_r	hip_adduction_r	hip_rotation_r	knee_angle_r	knee_angle_r_beta	ankle_angle_r	subtalar_angle_r	mtp_angle_r	hip_flexion_l	hip_adduction_l	hip_rotation_l	knee_angle_l	knee_angle_l_beta	ankle_angle_l	subtalar_angle_l	mtp_angle_l	lumbar_extension	lumbar_bending	lumbar_rotation	arm_flex_r	arm_add_r	arm_rot_r	elbow_flex_r	pro_sup_r	arm_flex_l	arm_add_l	arm_rot_l	elbow_flex_l	pro_sup_l
      5.50000000	      7.08270111	     -0.09607339	      5.15921178	     -0.08743343	      0.91447864	     -0.22793078	     -3.04206734	     -9.12782136	    -19.02984616	      6.65190659	      0.11609767	      8.17143335	     -1.26089986	     -7.49999987	     -2.16301304	    -11.76363552	     -6.68459455	      5.25626361	      0.09173911	      3.99808257	     -3.34541970	     -7.49999987	     -7.65059528	     -0.41575279	      0.67418529	     67.84998053	     -8.21293941	     64.85995965	    122.39446671	     83.26613796	     67.11905197	     -2.55330333	     55.12445155	    109.58854602	     97.99355101
      5.51666670	      7.13791742	     -0.05975692	      5.24148581	     -0.08776270	      0.91750025	     -0.22805943	     -3.07975051	     -9.16696670	    -18.96516516	      6.73020873	      0.11746430	      8.15987935	     -1.43791701	     -7.49999987	     -2.10502276	    -11.76736378	     -6.66842396	      5.29917063	      0.09248798	      3.97971111	     -3.36389417	     -7.49999987	     -7.85823731	     -0.35831721	      0.51009341	     67.56477939	     -8.02046470	     64.72873866	    121.79900536	     83.87256584	     66.92885731	     -2.78128902	     55.49850421	    109.46518523	     98.37066795
      5.53333330	      7.26425632	     -0.03060516	      5.27912153	     -0.08761454	      0.91704834	     -0.22748222	     -3.21301008	     -9.18397030	    -18.84077816	      6.77898458	      0.11831560	      8.12205632	     -1.69491404	     -7.49999987	     -2.24945629	    -11.75580020	     -6.78860344	      5.32742516	      0.09298111	      4.01951200	     -3.19789906	     -7.49999987	     -8.17104392	     -0.34240544	      0.40711094	     67.41535149	     -7.79904779	     64.26222721	    121.39329022	     82.75146700	     67.03572167	     -2.76171328	     55.68430887	    109.30903375	     97.09638590
      5.55000000	      7.32116008	     -0.03631661	      5.27226898	     -0.09376690	      0.91403499	     -0.22409949	     -3.12050515	     -9.15726101	    -18.90717060	      6.90870712	      0.12057969	      8.20351305	     -1.64070285	     -7.49999987	     -2.13715151	    -11.80408332	     -6.66295121	      5.52466015	      0.09642351	      3.96648976	     -3.38544029	     -7.49999987	     -8.62885518	     -0.36682902	      0.13878031	     67.88929047	     -7.28787962	     64.20649303	    119.74112032	     82.82514524	     68.05224633	     -3.09331321	     56.34331143	    108.82818803	     97.30061352
      5.56666670	      7.42807829	     -0.11110643	      5.16322533	     -0.09353454	      0.91136558	     -0.22374504	     -2.97995930	     -9.07259960	    -18.74931260	      7.13889544	      0.12459723	      8.20224357	     -1.89383494	     -7.49999987	     -2.06432349	    -11.95325517	     -6.63194336	      5.77648820	      0.10081874	      4.14686046	     -3.54022843	     -7.49999987	     -9.30788637	     -0.28113635	      0.04308920	     68.77690610	     -6.92033914	     64.10898720	    119.16395769	     82.33118123	     69.17117472	     -3.18942469	     56.81724720	    108.89705850	     96.82767557
      5.58333330	      7.45034822	     -0.14203890	      5.09184053	     -0.09381975	      0.91456379	     -0.22385902	     -2.74407664	     -9.08223177	    -18.69585985	      7.43175994	      0.12970868	      8.29065770	     -1.92294696	     -7.49999987	     -1.93720772	    -12.06206001	     -6.51728688	      5.95441075	      0.10392407	      4.19380083	     -3.82064778	     -7.49999987	     -9.73972888	     -0.23697056	     -0.05127711	     69.25400674	     -6.70883498	     64.84632716	    118.76111143	     81.54027365	     69.79450749	     -3.31796598	     58.00888007	    109.29687927	     94.96055407
      5.60000000	      7.51302304	     -0.17995137	      4.91454415	     -0.09321890	      0.91037315	     -0.22296444	     -2.48002267	     -9.10718279	    -18.61680750	      7.85110294	      0.13702760	      8.54699656	     -1.85467092	     -7.49999987	     -1.87125562	    -12.14203510	     -6.34079473	      6.27653864	      0.10954626	      4.31360227	     -4.10420893	     -7.49999987	    -10.16297536	     -0.24851108	     -0.01412843	     69.73164036	     -6.50168763	     64.46448473	    118.63277788	     81.68166470	     70.49653255	     -2.89160088	     58.40913546	    110.30143099	     94.43584347
      5.61666670	      7.55587161	     -0.22562510	      4.67872577	     -0.09306848	      0.90457967	     -0.22308948	     -2.15292208	     -9.14020588	    -18.29212890	      8.30484557	      0.14494690	      8.76112277	     -2.21150643	     -7.49999987	     -1.78508456	    -12.25007912	     -6.16007573	      6.65237417	      0.11610583	      4.42391258	     -4.66802432	     -7.49999987	    -10.56261533	     -0.16635793	      0.13591311	     70.59024812	     -6.32775061	     63.97250502	    119.17428108	     83.47022723	     71.40954548	     -2.38078344	     58.32865093	    110.65371243	     96.84194775
      5.63333330	      7.57155051	     -0.26513459	      4.51539334	     -0.09293858	      0.90729145	     -0.22219132	     -1.85029061	     -9.19611269	    -18.10280014	      8.77054712	      0.15307492	      9.07156943	     -2.32490243	     -7.49999987	     -1.68165221	    -12.36101081	     -6.04739222	      7.02131141	      0.12254500	      4.68283882	     -4.96308751	     -7.49999987	    -10.95732400	     -0.10249955	      0.23573196	     70.87989498	     -6.42000317	     64.00551919	    119.59883967	     82.12581727	     71.83822065	     -2.10151751	     58.59188469	    111.15397694	     94.94987447
      5.65000000	      7.60164705	     -0.27487801	      4.28443788	     -0.09778100	      0.90766186	     -0.22596397	     -1.36521733	     -9.37151554	    -17.84165462	      9.45853427	      0.16508257	      9.21412379	     -2.25302555	     -7.49999987	     -1.55122475	    -12.41119242	     -5.99281368	      7.39464998	      0.12906099	      4.97194611	     -5.13011152	     -7.49999987	    -11.60396408	     -0.04186915	      0.06241943	     71.15636340	     -6.77122704	     64.02628844	    119.45675685	     82.16885961	     72.35362020	     -2.13518132	     58.67354625	    111.25192758	     95.00378009
      5.66666670	      7.62385855	     -0.15827227	      4.12757032	     -0.09781289	      0.91036348	     -0.22484654	     -0.79392511	     -9.67834931	    -17.54301737	     10.37287056	      0.18104074	      9.70007222	     -2.33337727	     -7.49999987	     -1.27026400	    -12.31805742	     -5.90777215	      7.91882563	      0.13820958	      5.13923651	     -5.63768775	     -7.49999987	    -12.49709468	     -0.05783248	     -0.16038436	     72.01411469	     -6.80152856	     64.62909559	    119.80640681	     82.08593298	     73.45002358	     -2.27394082	     59.70061410	    111.46846401	     94.61740681
      5.68333330	      7.70500473	     -0.08679282	      3.81432520	     -0.09802587	      0.90868088	     -0.22511762	     -0.16306270	     -9.92740486	    -16.93019004	     11.30700309	      0.19734443	      9.85711277	     -2.70231545	     -7.49999987	     -1.09695020	    -12.28677270	     -6.09028858	      8.41774884	      0.14691743	      5.38325745	     -5.86746943	     -7.49999987	    -13.31719881	     -0.09242879	     -0.47573200	     72.72761920	     -6.34253089	     65.20273297	    120.26653404	     80.82209824	     74.30600334	     -2.86912057	     59.98865184	    111.82852105	     92.12238379
      5.70000000	      7.60076551	     -0.02461738	      3.69261046	     -0.10875432	      0.90730241	     -0.22370222	      0.89686030	    -10.20069417	    -16.58205008	     12.52334108	      0.21857354	      9.90834428	     -2.88452968	     -7.49999987	     -0.19831166	    -12.30195922	     -5.80359582	      9.37608937	      0.16364363	      5.45023284	     -6.76625376	     -7.49999987	    -14.41407414	     -0.05614191	     -1.31201975	     74.35159821	     -5.35050614	     65.91850529	    120.01897602	     82.80713286	     75.57432322	     -3.91332985	     59.56731316	    112.86655042	     94.18544110
      5.71666670	      7.64555351	      0.10992653	      3.51817912	     -0.10922315	      0.90961540	     -0.22442423	      1.74960827	    -10.53719910	    -16.24394088	     13.61368562	      0.23760364	     10.13015350	     -2.85618050	     -7.49999987	      0.44056863	    -12.24676084	     -5.85922580	     10.28769068	      0.17955407	      5.72814813	     -7.25942388	     -7.49999987	    -15.62687612	     -0.16679705	     -1.37804875	     74.94655929	     -5.35802543	     65.94987036	    120.53652939	     82.95609323	     76.14560938	     -4.16148656	     59.34188666	    113.01215634	     94.31092791
